# xmcd
#
# Track frame offsets:
#	150
#	20300
#	37748
#	52155
#	68871
#	90828
#	107997
#	131261
#	150270
#	171603
#	189074
#
# Disc length: 2747 seconds
#
# Revision: 0
# Processed by: cddbd v1.5.2PL0 Copyright (c) Steve Scherf et al.
# Submitted via: dBpowerAMP V4.0
#
DISCID=7e0ab90b
DTITLE=Ashley Slater - Cellophane
DYEAR=2007
DGENRE=Blues
TTITLE0=Can I sing A Song For You
TTITLE1=Cellophane
TTITLE2=1000 Ways
TTITLE3=Femme Fatale
TTITLE4=Softly
TTITLE5=Summer Smile
TTITLE6=Sissy's Lullaby
TTITLE7=Beautiful Girl
TTITLE8=Standing Alone
TTITLE9=You Never Asked Me Why
TTITLE10=All In Love
EXTD=
EXTT0=
EXTT1=
EXTT2=
EXTT3=
EXTT4=
EXTT5=
EXTT6=
EXTT7=
EXTT8=
EXTT9=
EXTT10=
PLAYORDER=
